<svg width="210" height="210" viewBox="0 0 210 210" fill="none" xmlns="http://www.w3.org/2000/svg">
<path fill-rule="evenodd" clip-rule="evenodd" d="M8.82859 77.9575C16.9759 49.0028 37.834 25.3715 65 13.4664V41.7108C51.5871 50.2135 41.0578 62.8559 35.2087 77.8412L8.82859 77.9575ZM8.62036 131.494C16.6161 160.791 37.5994 184.729 65 196.736V168.492C51.2948 159.804 40.6001 146.794 34.8328 131.378L8.62036 131.494ZM175.598 130.758C169.86 146.52 158.986 159.815 145 168.619V196.824C172.765 184.73 193.972 160.399 201.81 130.642L175.598 130.758ZM201.13 77.1094C192.796 48.4704 171.998 25.1389 145 13.3784V41.5835C158.324 49.971 168.824 62.4352 174.749 77.2257L201.13 77.1094Z" fill="#181818"/>
<path d="M92.7772 25V16.6H94.4212V25H92.7772ZM98.182 18.868H99.034L99.334 19.288C99.502 19.136 99.662 19.028 99.814 18.964C99.974 18.9 100.21 18.868 100.522 18.868H101.854C102.206 19.316 102.446 19.764 102.574 20.212C102.702 20.66 102.766 21.22 102.766 21.892V25H101.17V21.772C101.17 21.036 101.058 20.488 100.834 20.128H99.682C99.858 20.472 99.946 20.94 99.946 21.532V25H98.35V21.772C98.35 21.012 98.246 20.464 98.038 20.128H97.114V25H95.518V18.868H96.766L96.982 19.3C97.158 19.14 97.322 19.028 97.474 18.964C97.634 18.9 97.87 18.868 98.182 18.868ZM106.637 22.228H105.353C105.185 22.436 105.101 22.696 105.101 23.008C105.101 23.32 105.189 23.564 105.365 23.74H106.637V22.228ZM104.057 18.868H107.033C107.513 19.156 107.829 19.488 107.981 19.864C108.133 20.232 108.209 20.736 108.209 21.376V23.176C108.209 23.84 108.225 24.448 108.257 25H106.889L106.673 24.568C106.361 24.856 105.921 25 105.353 25H104.597C103.917 24.552 103.577 23.908 103.577 23.068C103.577 22.22 103.925 21.552 104.621 21.064H105.749C106.061 21.064 106.353 21.16 106.625 21.352V20.752C106.625 20.44 106.489 20.232 106.217 20.128H104.057V18.868ZM113.885 18.868V24.364C113.885 24.972 113.805 25.46 113.645 25.828C113.493 26.196 113.185 26.52 112.721 26.8H109.985V25.552H112.037C112.237 25.432 112.337 25.24 112.337 24.976V24.268C112.041 24.516 111.569 24.64 110.921 24.64H110.045C109.397 23.864 109.073 22.964 109.073 21.94C109.073 21.204 109.177 20.604 109.385 20.14C109.593 19.668 109.897 19.244 110.297 18.868H111.185C111.705 18.868 112.117 19.036 112.421 19.372L112.637 18.868H113.885ZM112.289 20.128H111.125C110.837 20.624 110.693 21.196 110.693 21.844C110.693 22.484 110.817 23.012 111.065 23.428H112.289V20.128ZM117.638 20.128H116.738C116.618 20.272 116.518 20.472 116.438 20.728C116.366 20.984 116.33 21.232 116.33 21.472H118.046C118.062 21.232 118.03 20.984 117.95 20.728C117.87 20.464 117.766 20.264 117.638 20.128ZM119.27 23.74V25H116.222C115.662 24.624 115.266 24.16 115.034 23.608C114.81 23.048 114.698 22.484 114.698 21.916C114.698 20.604 115.194 19.588 116.186 18.868H118.13C118.666 19.26 119.03 19.676 119.222 20.116C119.414 20.556 119.51 21 119.51 21.448C119.51 21.896 119.474 22.28 119.402 22.6H116.414C116.438 22.784 116.506 22.996 116.618 23.236C116.738 23.468 116.866 23.636 117.002 23.74H119.27Z" fill="#181818"/>
<path d="M85.0674 192.608H86.1474C86.3714 192.328 86.5474 191.92 86.6754 191.384C86.8114 190.848 86.8794 190.316 86.8794 189.788C86.8794 188.532 86.6434 187.616 86.1714 187.04H85.0674V192.608ZM83.4354 194V185.6H86.9154C88.0514 186.608 88.6194 187.976 88.6194 189.704C88.6194 191.424 88.0874 192.856 87.0234 194H83.4354ZM93.1406 194H90.5246C89.7246 193.256 89.3246 192.24 89.3246 190.952C89.3246 190.304 89.4126 189.74 89.5886 189.26C89.7726 188.78 90.0606 188.316 90.4526 187.868H93.2606C93.6766 188.348 93.9606 188.816 94.1126 189.272C94.2646 189.72 94.3406 190.28 94.3406 190.952C94.3406 192.24 93.9406 193.256 93.1406 194ZM91.3766 192.74H92.2886C92.5766 192.18 92.7206 191.544 92.7206 190.832C92.7206 190.12 92.5726 189.552 92.2766 189.128H91.3766C91.0886 189.536 90.9446 190.116 90.9446 190.868C90.9446 191.612 91.0886 192.236 91.3766 192.74ZM96.6876 190.88C96.6876 191.216 96.7396 191.56 96.8436 191.912C96.9476 192.256 97.0916 192.532 97.2756 192.74H99.0756V194H96.4476C95.5036 193.248 95.0316 192.208 95.0316 190.88C95.0316 189.552 95.5356 188.548 96.5436 187.868H99.0756V189.128H97.2756C96.8836 189.536 96.6876 190.12 96.6876 190.88ZM101.999 194H100.739C100.387 193.552 100.147 193.104 100.019 192.656C99.8914 192.208 99.8274 191.648 99.8274 190.976V187.868H101.423V191.096C101.423 191.824 101.567 192.372 101.855 192.74H102.971V187.868H104.567V194H103.307L103.091 193.568C102.787 193.856 102.423 194 101.999 194ZM108.258 187.868H109.11L109.41 188.288C109.578 188.136 109.738 188.028 109.89 187.964C110.05 187.9 110.286 187.868 110.598 187.868H111.93C112.282 188.316 112.522 188.764 112.65 189.212C112.778 189.66 112.842 190.22 112.842 190.892V194H111.246V190.772C111.246 190.036 111.134 189.488 110.91 189.128H109.758C109.934 189.472 110.022 189.94 110.022 190.532V194H108.426V190.772C108.426 190.012 108.322 189.464 108.114 189.128H107.19V194H105.594V187.868H106.842L107.058 188.3C107.234 188.14 107.398 188.028 107.55 187.964C107.71 187.9 107.946 187.868 108.258 187.868ZM116.593 189.128H115.693C115.573 189.272 115.473 189.472 115.393 189.728C115.321 189.984 115.285 190.232 115.285 190.472H117.001C117.017 190.232 116.985 189.984 116.905 189.728C116.825 189.464 116.721 189.264 116.593 189.128ZM118.225 192.74V194H115.177C114.617 193.624 114.221 193.16 113.989 192.608C113.765 192.048 113.653 191.484 113.653 190.916C113.653 189.604 114.149 188.588 115.141 187.868H117.085C117.621 188.26 117.985 188.676 118.177 189.116C118.369 189.556 118.465 190 118.465 190.448C118.465 190.896 118.429 191.28 118.357 191.6H115.369C115.393 191.784 115.461 191.996 115.573 192.236C115.693 192.468 115.821 192.636 115.957 192.74H118.225ZM121.934 187.868H123.206C123.558 188.316 123.798 188.764 123.926 189.212C124.054 189.66 124.118 190.22 124.118 190.892V194H122.522V190.772C122.522 190.012 122.418 189.464 122.21 189.128H120.866V194H119.27V187.868H120.518L120.734 188.3C120.91 188.14 121.074 188.028 121.226 187.964C121.386 187.9 121.622 187.868 121.934 187.868ZM125.278 191.324V189.128H124.45V187.868H125.278V186.2H126.874V187.868H127.858V189.128H126.874V191.708C126.874 192.196 126.958 192.54 127.126 192.74H127.858V194H126.154C125.73 193.608 125.474 193.184 125.386 192.728C125.314 192.344 125.278 191.876 125.278 191.324Z" fill="#181818"/>
<path d="M181.109 103.6L179.405 112H177.149L175.445 103.6H177.173L177.833 107.488L178.241 110.008H178.313L178.721 107.488L179.381 103.6H181.109ZM181.69 112V105.868H183.274V112H181.69ZM181.69 103.6H183.274V105.22H181.69V103.6ZM188.947 112H187.735L187.519 111.568C187.343 111.728 187.175 111.84 187.015 111.904C186.863 111.968 186.631 112 186.319 112H185.275C184.923 111.664 184.643 111.224 184.435 110.68C184.235 110.136 184.135 109.528 184.135 108.856C184.135 108.176 184.235 107.6 184.435 107.128C184.643 106.656 184.935 106.236 185.311 105.868H186.343C186.767 105.868 187.103 105.98 187.351 106.204V103.6H188.947V112ZM187.351 107.128H186.199C185.903 107.632 185.755 108.252 185.755 108.988C185.755 109.716 185.899 110.3 186.187 110.74H187.351V107.128ZM192.747 107.128H191.847C191.727 107.272 191.627 107.472 191.547 107.728C191.475 107.984 191.439 108.232 191.439 108.472H193.155C193.171 108.232 193.139 107.984 193.059 107.728C192.979 107.464 192.875 107.264 192.747 107.128ZM194.379 110.74V112H191.331C190.771 111.624 190.375 111.16 190.143 110.608C189.919 110.048 189.807 109.484 189.807 108.916C189.807 107.604 190.303 106.588 191.295 105.868H193.239C193.775 106.26 194.139 106.676 194.331 107.116C194.523 107.556 194.619 108 194.619 108.448C194.619 108.896 194.583 109.28 194.511 109.6H191.523C191.547 109.784 191.615 109.996 191.727 110.236C191.847 110.468 191.975 110.636 192.111 110.74H194.379ZM199.072 112H196.456C195.656 111.256 195.256 110.24 195.256 108.952C195.256 108.304 195.344 107.74 195.52 107.26C195.704 106.78 195.992 106.316 196.384 105.868H199.192C199.608 106.348 199.892 106.816 200.044 107.272C200.196 107.72 200.272 108.28 200.272 108.952C200.272 110.24 199.872 111.256 199.072 112ZM197.308 110.74H198.22C198.508 110.18 198.652 109.544 198.652 108.832C198.652 108.12 198.504 107.552 198.208 107.128H197.308C197.02 107.536 196.876 108.116 196.876 108.868C196.876 109.612 197.02 110.236 197.308 110.74Z" fill="#181818"/>
<path d="M14.4137 112L14.1617 110.668H12.2657L12.0137 112H10.3817L12.0017 103.6H14.4857L16.0217 112H14.4137ZM13.1897 105.16L12.7217 107.956L12.4577 109.384H13.9577L13.6817 107.956L13.2137 105.16H13.1897ZM18.6673 112H17.4073C17.0553 111.552 16.8153 111.104 16.6873 110.656C16.5593 110.208 16.4953 109.648 16.4953 108.976V105.868H18.0913V109.096C18.0913 109.824 18.2353 110.372 18.5233 110.74H19.6393V105.868H21.2353V112H19.9753L19.7593 111.568C19.4553 111.856 19.0913 112 18.6673 112ZM26.9061 112H25.6941L25.4781 111.568C25.3021 111.728 25.1341 111.84 24.9741 111.904C24.8221 111.968 24.5901 112 24.2781 112H23.2341C22.8821 111.664 22.6021 111.224 22.3941 110.68C22.1941 110.136 22.0941 109.528 22.0941 108.856C22.0941 108.176 22.1941 107.6 22.3941 107.128C22.6021 106.656 22.8941 106.236 23.2701 105.868H24.3021C24.7261 105.868 25.0621 105.98 25.3101 106.204V103.6H26.9061V112ZM25.3101 107.128H24.1581C23.8621 107.632 23.7141 108.252 23.7141 108.988C23.7141 109.716 23.8581 110.3 24.1461 110.74H25.3101V107.128ZM27.934 112V105.868H29.518V112H27.934ZM27.934 103.6H29.518V105.22H27.934V103.6ZM34.1953 112H31.5793C30.7793 111.256 30.3793 110.24 30.3793 108.952C30.3793 108.304 30.4673 107.74 30.6433 107.26C30.8273 106.78 31.1153 106.316 31.5073 105.868H34.3153C34.7313 106.348 35.0153 106.816 35.1673 107.272C35.3193 107.72 35.3953 108.28 35.3953 108.952C35.3953 110.24 34.9953 111.256 34.1953 112ZM32.4313 110.74H33.3433C33.6313 110.18 33.7753 109.544 33.7753 108.832C33.7753 108.12 33.6273 107.552 33.3313 107.128H32.4313C32.1433 107.536 31.9993 108.116 31.9993 108.868C31.9993 109.612 32.1433 110.236 32.4313 110.74Z" fill="#181818"/>
<path fill-rule="evenodd" clip-rule="evenodd" d="M105 210C162.99 210 210 162.99 210 105C210 47.0101 162.99 0 105 0C47.0101 0 0 47.0101 0 105C0 162.99 47.0101 210 105 210ZM105 205C160.228 205 205 160.228 205 105C205 49.7715 160.228 5 105 5C49.7715 5 5 49.7715 5 105C5 160.228 49.7715 205 105 205Z" fill="#181818"/>
</svg>
