<svg width="172" height="172" viewBox="0 0 172 172" fill="none" xmlns="http://www.w3.org/2000/svg">
<mask id="path-1-inside-1_6_6" fill="white">
<path fill-rule="evenodd" clip-rule="evenodd" d="M66 0C63.2386 0 61 2.23858 61 5V61H5C2.23858 61 0 63.2386 0 66V106C0 108.761 2.23858 111 5 111H61V167C61 169.761 63.2386 172 66 172H106C108.761 172 111 169.761 111 167V111H167C169.761 111 172 108.761 172 106V66C172 63.2386 169.761 61 167 61H111V5C111 2.23858 108.761 0 106 0H66Z"/>
</mask>
<path fill-rule="evenodd" clip-rule="evenodd" d="M66 0C63.2386 0 61 2.23858 61 5V61H5C2.23858 61 0 63.2386 0 66V106C0 108.761 2.23858 111 5 111H61V167C61 169.761 63.2386 172 66 172H106C108.761 172 111 169.761 111 167V111H167C169.761 111 172 108.761 172 106V66C172 63.2386 169.761 61 167 61H111V5C111 2.23858 108.761 0 106 0H66Z" fill="#181818"/>
<path d="M61 61V62H62V61H61ZM61 111H62V110H61V111ZM111 111V110H110V111H111ZM111 61H110V62H111V61ZM62 5C62 2.79086 63.7909 1 66 1V-1C62.6863 -1 60 1.68629 60 5H62ZM62 61V5H60V61H62ZM5 62H61V60H5V62ZM1 66C1 63.7909 2.79086 62 5 62V60C1.68629 60 -1 62.6863 -1 66H1ZM1 106V66H-1V106H1ZM5 110C2.79086 110 1 108.209 1 106H-1C-1 109.314 1.68629 112 5 112V110ZM61 110H5V112H61V110ZM62 167V111H60V167H62ZM66 171C63.7909 171 62 169.209 62 167H60C60 170.314 62.6863 173 66 173V171ZM106 171H66V173H106V171ZM110 167C110 169.209 108.209 171 106 171V173C109.314 173 112 170.314 112 167H110ZM110 111V167H112V111H110ZM167 110H111V112H167V110ZM171 106C171 108.209 169.209 110 167 110V112C170.314 112 173 109.314 173 106H171ZM171 66V106H173V66H171ZM167 62C169.209 62 171 63.7909 171 66H173C173 62.6863 170.314 60 167 60V62ZM111 62H167V60H111V62ZM110 5V61H112V5H110ZM106 1C108.209 1 110 2.79086 110 5H112C112 1.68629 109.314 -1 106 -1V1ZM66 1H106V-1H66V1Z" fill="#00FF00" mask="url(#path-1-inside-1_6_6)"/>
</svg>
